<?xml version="1.0" encoding="UTF-8"?>
<svg width="476px" height="83px" viewBox="0 0 476 83" version="1.1" xmlns="http://www.w3.org/2000/svg" xmlns:xlink="http://www.w3.org/1999/xlink">
    <!-- Generator: Sketch 47.1 (45422) - http://www.bohemiancoding.com/sketch -->
    <title>request a post</title>
    <desc>Created with Sketch.</desc>
    <defs>
        <polygon id="path-1" points="0.619225818 0.707 20.2975233 0.707 20.2975233 40.1156 0.619225818 40.1156 0.619225818 0.707"></polygon>
    </defs>
    <g id="Page-1" stroke="none" stroke-width="1" fill="none" fill-rule="evenodd">
        <g id="request-a-post">
            <path d="M38.6501,49.2149 C38.6501,47.1879 39.9081,44.8469 41.0431,43.1459 C41.5781,42.3439 42.1131,41.5419 42.6421,40.7359 C42.9971,40.1939 43.7881,39.4179 43.7881,38.7089 C43.7881,37.8769 42.3911,37.2159 41.7211,36.8399 C41.4091,36.6649 41.1321,36.5719 40.8821,36.5719 C40.4831,36.5719 40.1551,36.8099 39.8671,37.3259 C39.4471,38.0799 39.1251,38.8139 38.7221,39.5769 C38.5361,39.9659 38.2731,40.4819 37.2541,42.2899 C36.6061,43.4419 35.4091,45.4139 34.7331,46.5049 C33.8351,47.9539 32.9221,49.2599 32.6841,49.5529 C32.4011,49.9009 31.9831,50.0589 31.5971,50.0589 C30.9051,50.0589 30.0001,49.4309 30.0001,48.4119 C30.0001,47.9509 30.2231,47.5989 30.4641,47.1929 C30.8841,46.4829 31.3981,45.9019 32.3521,44.3319 C32.9231,43.3929 33.7951,42.0399 34.3291,41.1139 C35.1061,39.7659 35.4961,39.1349 36.0371,38.0689 C36.4591,37.2399 36.7461,36.5349 37.1511,35.6969 C37.3501,35.2879 37.5501,34.8589 37.5881,34.3999 C37.5921,34.3529 37.5941,34.3069 37.5941,34.2609 C37.5941,33.8259 37.4301,33.4279 37.3091,33.0109 C37.2101,32.6689 37.1631,32.3149 37.1631,31.9599 C37.1631,30.6179 37.8371,29.2649 38.9571,28.5059 C39.4361,28.1809 40.0591,27.9619 40.6641,27.9619 C42.0051,27.9619 42.4691,28.8919 42.4691,29.8819 C42.4691,30.3859 42.3641,30.8939 42.2531,31.3869 C42.1581,31.8089 41.9641,32.2769 41.9641,32.7159 C41.9641,33.6509 43.1231,34.0109 43.7701,34.4399 C45.3121,35.4619 47.3561,36.5599 47.3561,38.7129 C47.3561,40.3789 46.0231,41.8079 45.1231,43.1119 C44.1161,44.5709 42.7711,46.4239 42.2791,48.1619 C42.2241,48.3559 42.1971,48.5409 42.1971,48.7109 C42.1971,49.2969 42.5211,49.7129 43.1671,49.7129 C44.6861,49.7129 47.1151,47.2229 47.7181,46.5859 C49.0041,45.2289 50.2131,43.4489 51.1651,41.8459 C51.6511,41.0259 52.1911,40.0979 52.6391,39.3019 C52.9571,38.7379 53.3261,38.5979 53.8781,38.5979 C54.1241,38.5979 54.3841,38.6609 54.6511,38.7959 C55.2191,39.0819 55.5701,39.5709 55.5701,40.1149 C55.5701,40.3679 55.5111,40.7079 55.3971,40.9679 C55.0481,41.7569 54.5091,42.6879 54.0671,43.4269 C52.3021,46.3799 49.6961,49.7689 46.7871,51.7119 C45.6031,52.5029 44.1761,53.1509 42.7481,53.1509 C40.3811,53.1509 38.6501,51.3609 38.6501,49.2149" id="Fill-1" fill="#F1685C"></path>
            <path d="M58.299,40.9678 C59.039,40.5718 59.736,40.0088 60.356,39.4418 C60.75,39.0808 62.933,37.0488 62.933,36.0078 C62.933,35.4628 62.556,35.4248 62.253,35.4248 C61.534,35.4248 60.569,35.8628 59.952,36.3148 C59.212,36.8578 58.541,37.3278 57.9,37.9818 C57.255,38.6388 56.672,39.3638 56.145,40.1188 C55.979,40.3598 55.403,41.1098 55.403,41.5718 C55.403,41.8148 55.553,41.9478 55.716,41.9478 C56.596,41.9478 57.556,41.3648 58.299,40.9678 M50.056,49.9918 C49.715,49.1368 49.568,48.2588 49.568,47.3748 C49.568,44.6508 50.964,41.8828 52.33,39.6358 C54.126,36.6828 56.708,33.8238 59.924,32.4198 C60.724,32.0708 61.765,31.9048 62.642,31.9048 C64.693,31.9048 66.418,33.3228 66.418,35.5068 C66.418,36.9698 65.675,38.4758 64.863,39.6168 C63.848,41.0458 62.431,42.1268 60.992,43.0968 C60.231,43.6098 59.442,44.0928 58.598,44.4578 C57.746,44.8248 56.846,45.0398 55.955,45.2878 C55.23,45.4888 54.107,45.6998 53.553,46.1818 C53.237,46.4548 53.151,46.9188 53.151,47.3708 C53.151,49.5338 54.735,50.1418 56.272,50.1418 C58.465,50.1418 60.848,49.1948 62.764,47.9908 C64.265,47.0478 65.492,45.8238 66.664,44.6388 C67.96,43.3278 69.023,41.8608 69.984,40.2858 C70.397,39.6098 70.804,38.7388 71.536,38.3478 C71.773,38.2208 72.038,38.1588 72.302,38.1588 C72.777,38.1588 73.251,38.3598 73.562,38.7388 C73.776,38.9988 73.86,39.2868 73.86,39.5798 C73.86,40.0618 73.603,40.4648 73.384,40.8998 C72.958,41.7398 72.315,42.6668 71.805,43.4568 C70.782,45.0398 69.752,46.4398 68.482,47.7258 C65.859,50.3848 62.604,52.4418 59.062,53.2408 C58.16,53.4458 57.198,53.5618 56.247,53.5618 C53.647,53.5618 51.122,52.6588 50.056,49.9918" id="Fill-3" fill="#F1685C"></path>
            <path d="M75.7121,66.5176 C76.8131,64.8926 77.6961,62.9436 78.3781,61.1136 C79.1461,59.0526 80.1981,55.5386 80.1981,53.0826 C80.1981,52.7916 80.1761,52.3466 79.8821,52.3466 C79.4801,52.3466 79.1981,53.2196 79.0711,53.5256 C78.6801,54.4616 77.8961,56.6796 77.5211,57.6216 C76.7271,59.6216 76.0701,61.2886 75.4651,63.2456 C75.1931,64.1266 74.8011,65.2886 74.5621,66.1786 C74.5351,66.2796 74.4641,66.5336 74.4561,66.7666 C74.4491,67.0136 74.5111,67.2386 74.7721,67.2386 C75.1051,67.2386 75.5751,66.7196 75.7121,66.5176 M73.0401,49.8566 C74.2111,49.2336 75.1481,48.2216 76.0211,47.2466 C77.7681,45.2916 79.2951,43.0606 80.5581,40.7666 C81.1761,39.6416 81.9981,38.4556 82.3211,37.2006 C82.3681,37.0206 82.3881,36.8566 82.3861,36.7086 C82.3731,35.8716 81.6331,35.5396 80.8211,35.5396 C79.1671,35.5396 77.8571,36.6226 76.6641,37.6306 C75.6961,38.4496 74.8201,39.3536 74.1031,40.4036 C73.2711,41.6196 72.6611,42.8246 71.9861,44.1326 C71.3941,45.2796 70.7721,47.0266 70.7721,48.8076 C70.7721,49.5306 71.1911,50.2006 71.9231,50.2006 C72.3091,50.2006 72.7111,50.0316 73.0401,49.8566 M71.0511,69.7176 C70.8261,69.2406 70.7401,68.7056 70.7401,68.1626 C70.7401,67.4756 70.8771,66.7736 71.0441,66.1526 C71.6701,63.8116 72.3951,62.0486 73.2761,59.7946 C74.1281,57.6196 75.0941,55.4836 75.9341,53.3046 C76.1201,52.8226 76.4311,52.1826 76.4161,51.6576 C76.4091,51.3946 76.3201,51.2996 76.1941,51.2996 C75.9411,51.2996 75.5381,51.6826 75.3551,51.8386 C74.5091,52.5566 73.6171,53.1836 72.5361,53.4876 C72.1501,53.5966 71.7751,53.6466 71.4131,53.6466 C69.4231,53.6466 67.8441,52.1076 67.4511,50.0446 C67.3631,49.5816 67.3241,49.1126 67.3241,48.6406 C67.3241,46.7126 67.9801,44.7426 68.6641,42.9966 C69.5231,40.8046 70.7471,38.7846 72.2511,36.9736 C73.7341,35.1876 75.7191,33.8816 77.8621,33.0106 C78.9591,32.5636 80.0721,32.2706 81.2601,32.2466 C81.6171,32.2356 82.4381,32.3046 82.8561,32.4736 C83.2521,32.6346 83.7041,32.8716 84.1471,32.8716 C84.8581,32.8716 85.1711,32.0456 86.0011,32.0456 C86.3701,32.0456 86.7411,32.1956 87.0131,32.4356 C87.4491,32.8196 87.6071,33.2796 87.6071,33.7606 C87.6071,34.3186 87.3941,34.9066 87.1561,35.4386 C86.6491,36.5696 85.9991,37.6306 85.4921,38.7626 C84.5131,40.9526 83.6001,43.1696 82.6021,45.3526 C82.3211,45.9636 81.8161,47.0726 81.8161,47.8446 C81.8161,48.4686 82.1581,48.7786 82.6321,48.7786 C83.2691,48.7786 84.2971,48.4006 84.8111,48.1286 C86.8881,47.0316 88.5091,45.2276 89.8281,43.3166 C90.4971,42.3476 91.5691,40.6936 92.0681,39.6686 C92.3911,39.0056 92.8281,38.5696 93.3721,38.4966 C93.6391,38.4606 93.9611,38.4986 94.3671,38.6186 C95.0701,38.8236 95.3101,39.2876 95.3101,39.8166 C95.3101,40.2646 95.1381,40.7606 94.9281,41.1886 C94.4191,42.2326 93.7141,43.3756 93.0771,44.3446 C91.7191,46.4136 90.1111,48.3426 88.1071,49.8306 C87.1741,50.5246 86.1701,51.1216 85.1111,51.5986 C84.6091,51.8256 84.0401,51.9796 83.5821,52.2896 C83.0771,52.6316 82.9391,53.0876 82.8781,53.6686 C82.7581,54.8406 82.7091,55.9966 82.4821,57.1576 C82.2491,58.3436 81.8311,60.0646 81.4451,61.2096 C80.6771,63.4906 79.5201,66.0466 78.1331,68.0946 C76.9381,69.8596 75.1331,71.1626 73.5701,71.1626 C72.4871,71.1626 71.5091,70.6896 71.0511,69.7176" id="Fill-5" fill="#F1685C"></path>
            <path d="M90.3205,50.4737 C89.8575,49.4987 89.6435,48.4287 89.6435,47.3647 C89.6435,46.1147 89.9905,44.7467 90.1975,43.9647 C90.4875,42.8677 90.9595,41.7567 91.4025,40.7157 C92.2905,38.6277 93.2835,36.6607 94.4985,34.7397 C95.0405,33.8807 95.6295,32.7697 96.5785,32.3047 C96.8575,32.1687 97.1625,32.0997 97.4645,32.0997 C98.0795,32.0997 98.6755,32.3857 98.9825,32.9737 C99.0975,33.1957 99.1475,33.4177 99.1475,33.6397 C99.1475,34.4957 98.4165,35.3357 97.9905,36.0217 C97.3895,36.9907 96.7765,38.0397 96.2545,39.0537 C95.6845,40.1587 93.2885,44.9147 93.2885,47.8277 C93.2885,49.0877 93.7375,49.9597 94.9765,49.9597 C97.1965,49.9597 99.1145,48.0347 100.3295,46.3577 C101.6575,44.5237 102.8385,42.5507 103.8395,40.5227 C104.3305,39.5287 104.8425,38.5527 105.2695,37.5287 C105.6515,36.6127 106.0395,35.4957 106.8735,34.8867 C107.1915,34.6547 107.5795,34.5357 107.9625,34.5357 C108.5325,34.5357 109.0915,34.7967 109.3945,35.3327 C109.5335,35.5787 109.5895,35.8367 109.5895,36.0997 C109.5895,36.8517 109.1365,37.6437 108.8755,38.2987 C107.8965,40.7587 107.0675,43.8777 107.0675,45.8637 C107.0675,46.7857 107.2235,47.9417 108.2955,47.9417 C109.1365,47.9417 110.0235,47.0537 110.5365,46.5307 C112.1495,44.8837 113.2985,42.6797 114.4435,40.7057 C114.9115,39.8997 115.3565,38.6287 116.3095,38.2927 C116.4735,38.2347 116.6415,38.2067 116.8065,38.2067 C117.6635,38.2067 118.3665,38.9387 118.3665,39.8417 C118.3665,40.3807 117.5365,41.8477 117.0985,42.6487 C116.5065,43.7307 115.8935,44.8517 115.2365,45.8557 C114.0935,47.5997 112.7545,49.5307 111.0125,50.6197 C110.1125,51.1827 109.0105,51.4977 107.9425,51.4977 C106.8825,51.4977 105.8435,51.1697 105.0275,50.3987 C104.6725,50.0637 104.2185,49.3777 104.0025,48.9427 C103.8385,48.6157 103.7075,48.3737 103.4085,48.3587 C103.1125,48.3437 102.5835,48.8847 102.3275,49.1707 C101.9635,49.5777 101.3475,50.2717 100.9525,50.6497 C99.2915,52.2417 97.5645,53.4087 95.0895,53.4087 C93.1455,53.4087 91.2515,52.4347 90.3205,50.4737" id="Fill-7" fill="#F1685C"></path>
            <path d="M120.8898,40.9678 C121.6298,40.5718 122.3268,40.0088 122.9468,39.4418 C123.3408,39.0808 125.5238,37.0488 125.5238,36.0078 C125.5238,35.4628 125.1468,35.4248 124.8438,35.4248 C124.1248,35.4248 123.1598,35.8628 122.5428,36.3148 C121.8028,36.8578 121.1318,37.3278 120.4908,37.9818 C119.8458,38.6388 119.2628,39.3638 118.7358,40.1188 C118.5698,40.3598 117.9938,41.1098 117.9938,41.5718 C117.9938,41.8148 118.1438,41.9478 118.3068,41.9478 C119.1868,41.9478 120.1468,41.3648 120.8898,40.9678 M112.6468,49.9918 C112.3058,49.1368 112.1588,48.2588 112.1588,47.3748 C112.1588,44.6508 113.5548,41.8828 114.9208,39.6358 C116.7168,36.6828 119.2988,33.8238 122.5148,32.4198 C123.3148,32.0708 124.3558,31.9048 125.2328,31.9048 C127.2838,31.9048 129.0088,33.3228 129.0088,35.5068 C129.0088,36.9698 128.2658,38.4758 127.4538,39.6168 C126.4388,41.0458 125.0218,42.1268 123.5828,43.0968 C122.8218,43.6098 122.0328,44.0928 121.1888,44.4578 C120.3368,44.8248 119.4368,45.0398 118.5458,45.2878 C117.8208,45.4888 116.6978,45.6998 116.1438,46.1818 C115.8278,46.4548 115.7418,46.9188 115.7418,47.3708 C115.7418,49.5338 117.3258,50.1418 118.8628,50.1418 C121.0558,50.1418 123.4388,49.1948 125.3548,47.9908 C126.8558,47.0478 128.0828,45.8238 129.2548,44.6388 C130.5508,43.3278 131.6138,41.8608 132.5748,40.2858 C132.9878,39.6098 133.3948,38.7388 134.1268,38.3478 C134.3638,38.2208 134.6288,38.1588 134.8928,38.1588 C135.3678,38.1588 135.8418,38.3598 136.1528,38.7388 C136.3668,38.9988 136.4508,39.2868 136.4508,39.5798 C136.4508,40.0618 136.1938,40.4648 135.9748,40.8998 C135.5488,41.7398 134.9058,42.6668 134.3958,43.4568 C133.3728,45.0398 132.3428,46.4398 131.0728,47.7258 C128.4498,50.3848 125.1948,52.4418 121.6528,53.2408 C120.7508,53.4458 119.7888,53.5618 118.8378,53.5618 C116.2378,53.5618 113.7128,52.6588 112.6468,49.9918" id="Fill-9" fill="#F1685C"></path>
            <path d="M136.5954,52.8711 C135.6644,52.8711 134.7334,52.7531 133.8484,52.4901 C133.1384,52.2791 132.3344,51.9301 131.9574,51.2491 C131.8214,51.0041 131.7544,50.7311 131.7544,50.4631 C131.7544,49.6511 132.2544,48.9281 133.3294,48.9281 C133.8224,48.9281 134.3324,49.1001 134.7764,49.2781 C135.2544,49.4701 135.7054,49.6021 136.1624,49.6021 C136.5144,49.6021 136.8684,49.5231 137.2384,49.3301 C138.6654,48.5841 139.4254,46.8601 139.4254,45.3001 C139.4254,43.4781 139.1234,41.8521 138.8774,40.0401 C138.8144,39.5831 138.7644,39.1251 138.7004,38.6691 C138.6554,38.3491 138.6364,37.7981 138.3734,37.5601 C138.2884,37.4841 138.2044,37.4491 138.1194,37.4491 C137.8564,37.4491 137.5914,37.7821 137.3174,38.2671 C137.0944,38.6621 136.8654,39.1571 136.6264,39.6541 C136.2594,40.3511 135.9134,41.3131 135.3904,41.5941 C135.2094,41.6911 134.9374,41.7221 134.7504,41.7221 C134.0284,41.7221 132.9374,41.0031 132.9374,40.2361 C132.9374,39.6051 133.3824,38.8871 133.7124,38.3001 C134.1664,37.4881 134.4254,36.8561 134.9074,36.0181 C135.8094,34.4531 136.4384,33.2361 137.3534,31.6761 C137.9584,30.6451 138.7954,29.0701 140.0744,29.0701 C140.3534,29.0701 140.6544,29.1441 140.9774,29.3161 C141.6364,29.6671 142.1554,30.3221 142.1554,31.2401 C142.1554,32.1041 141.6564,32.8281 141.6564,33.8051 C141.6564,34.6951 141.7734,35.5851 141.9474,36.4501 C142.3024,38.2191 142.5664,40.0581 142.7564,41.8531 C142.8414,42.6541 142.8884,43.4611 142.8884,44.2671 C142.8884,45.1151 142.9134,45.5781 142.7974,46.4191 C142.7824,46.5301 142.7624,46.6791 142.7624,46.8261 C142.7604,47.1221 142.8334,47.4161 143.1604,47.4161 C143.5194,47.4161 144.2944,46.9871 145.9704,45.6441 C147.4384,44.4681 148.5874,42.9881 149.6374,41.4321 C149.9764,40.9291 150.4734,40.0881 150.8694,39.3751 C151.2844,38.6311 151.7004,38.5291 152.0904,38.5291 C152.4364,38.5291 152.8604,38.6211 153.1734,38.8351 C153.6614,39.1691 153.9434,39.7291 153.9434,40.1931 C153.9434,40.8721 152.7844,42.4301 152.2804,43.2321 C151.2784,44.8241 150.1144,46.2461 148.7144,47.5051 C147.2084,48.8591 145.5154,50.1041 143.6904,51.0221 C142.1894,51.7771 140.5994,52.2941 138.9514,52.6291 C138.1854,52.7851 137.3904,52.8711 136.5954,52.8711 Z" id="Fill-11" fill="#F1685C"></path>
            <path d="M150.655,52.5889 C149.168,51.5299 148.407,49.8339 148.407,48.1249 C148.407,45.5059 149.221,42.8529 150.212,40.4239 C151.106,38.2299 152.1,36.0769 153.048,33.9049 C153.176,33.6109 153.405,33.2099 153.405,32.8509 C153.405,32.2569 152.714,32.2439 152.265,32.0839 C151.394,31.7729 150.696,31.2599 150.696,30.4109 C150.696,28.9109 152.111,28.9099 153.106,28.8749 C153.383,28.8629 154.011,28.8589 154.229,28.8479 C155.063,28.8089 155.355,28.7419 155.811,28.0169 C156.417,27.0529 156.838,25.9619 157.339,24.9429 C157.84,23.9199 158.354,22.8999 158.903,21.9009 C159.422,20.9569 160.03,19.8079 160.738,19.0549 C161.079,18.6929 161.507,18.4269 162.282,18.4269 C162.744,18.4269 163.266,18.7049 163.552,19.1709 C163.712,19.4309 163.777,19.7029 163.777,19.9799 C163.777,20.8059 163.196,21.6699 162.818,22.3429 C162.28,23.2979 161.754,24.2599 161.253,25.2349 C160.989,25.7469 160.735,26.2649 160.477,26.7789 C160.275,27.1859 159.893,27.7799 159.918,28.2519 C159.946,28.7599 160.281,28.9039 160.973,28.9379 C161.289,28.9529 161.983,28.9439 162.219,28.9439 C162.341,28.9439 162.484,28.9429 162.636,28.9429 C163.082,28.9429 163.618,28.9629 164.009,29.1209 C164.696,29.4009 164.851,30.1229 164.851,30.5269 C164.851,31.3509 164.211,32.0679 163.393,32.2429 C162.827,32.3629 162.244,32.3889 161.759,32.3889 C160.332,32.3889 159.741,32.3139 159.024,32.3139 C158.404,32.3139 157.882,32.4179 157.508,32.8999 C157.218,33.2739 156.995,33.7699 156.816,34.2019 C156.591,34.7479 156.194,35.5909 155.947,36.1259 C154.944,38.2919 154.182,40.1849 153.373,42.4329 C152.985,43.5119 152.564,44.6699 152.367,45.7989 C152.24,46.5229 152.124,47.2519 152.124,48.0629 C152.124,49.3889 152.835,49.8799 153.653,49.8799 C154.955,49.8799 156.635,48.8369 157.341,48.2769 C159.02,46.9439 160.472,45.2739 161.783,43.5859 C162.475,42.6949 163.095,41.7569 163.68,40.7949 C163.945,40.3599 164.282,39.7629 164.553,39.2709 C164.848,38.7349 165.349,38.3799 165.977,38.3799 C166.816,38.3799 167.525,39.2599 167.525,40.0729 C167.525,40.3719 167.462,40.6929 167.312,41.0169 C167.038,41.6089 166.424,42.6569 166.135,43.1299 C164.966,45.0449 163.611,46.8889 162.093,48.5409 C160.56,50.2109 158.858,51.5129 156.811,52.4929 C155.718,53.0169 154.499,53.4079 153.305,53.4079 C152.384,53.4079 151.477,53.1749 150.655,52.5889" id="Fill-13" fill="#F1685C"></path>
            <path d="M184.5983,49.5098 C185.9593,48.6388 186.9923,47.3408 187.9763,46.0828 C189.0843,44.6658 190.1853,43.2368 191.1563,41.7198 C192.0473,40.3268 193.5973,38.5068 193.5973,36.8618 C193.5973,35.9908 192.9853,35.7158 192.2273,35.7158 C191.4183,35.7158 190.4433,36.0308 189.8713,36.2698 C188.3083,36.9248 186.9393,37.9528 185.8203,39.2208 C183.7123,41.6098 181.7093,45.2418 181.7093,48.3058 C181.7093,49.2318 182.1263,50.0718 182.9973,50.0718 C183.4853,50.0718 184.0553,49.8598 184.5983,49.5098 M179.9053,52.7188 C178.7003,51.7808 178.3843,50.2468 178.3843,48.7858 C178.3843,44.8328 180.1113,40.7408 182.6723,37.7038 C183.9943,36.1368 185.6143,34.7428 187.4223,33.7658 C189.2523,32.7778 190.4983,32.4298 192.5583,32.4298 C193.5153,32.4298 194.3833,32.7828 195.2673,32.7828 C195.9803,32.7828 196.5453,32.3478 197.1823,32.3478 C197.9833,32.3478 198.6303,33.0088 198.6303,33.8448 C198.6303,34.8598 197.8923,36.0948 197.5473,36.8638 C196.8353,38.4478 195.9703,40.0138 195.5103,41.6978 C195.1653,42.9578 194.6903,44.4698 194.6903,45.8708 C194.6903,47.5308 195.2193,48.0788 195.9043,48.0788 C196.7823,48.0788 197.9163,47.1798 198.5253,46.5718 C199.7923,45.3058 200.7953,43.7638 201.6553,42.2068 C202.0193,41.5478 202.4623,40.6838 202.8883,39.8218 C203.3133,38.9618 203.9913,38.3718 204.9473,38.3718 C205.8053,38.3718 206.2073,39.0398 206.2073,39.8068 C206.2073,40.0988 206.0803,40.6468 205.8783,41.0628 C204.9563,42.9638 203.7333,45.1868 202.4763,46.9908 C201.7043,48.1008 200.7753,49.0698 199.7553,49.8698 C198.5913,50.7848 197.2473,51.5638 195.7853,51.5638 C193.3743,51.5638 192.5233,50.4468 191.4993,48.5438 C191.3363,48.2398 191.2563,48.1348 191.0343,48.1348 C190.5753,48.1348 189.5673,49.4788 189.0413,50.0428 C187.9193,51.2488 185.9883,52.8078 184.4013,53.2858 C183.8233,53.4598 183.2013,53.5618 182.5833,53.5618 C181.6243,53.5618 180.6743,53.3168 179.9053,52.7188" id="Fill-15" fill="#F1685C"></path>
            <path d="M227.9796,29.6719 C228.2756,29.6719 228.7336,29.2249 228.9986,28.9439 C230.1846,27.6839 231.9786,25.4609 233.0226,23.9499 C233.5736,23.1559 234.1536,22.3159 234.6256,21.4739 C234.8746,21.0319 235.1136,20.5969 235.3106,20.1289 C235.6046,19.4339 235.7316,18.8059 235.7316,18.3749 C235.7316,18.1429 235.5876,17.9779 235.3566,17.9779 C234.9706,17.9779 234.4906,18.4769 234.2336,18.7359 C233.5846,19.3919 233.0246,20.2089 232.4776,20.9479 C231.3826,22.4239 230.3396,24.1429 229.4726,25.7619 C229.0336,26.5809 228.1736,28.1909 227.8766,29.0739 C227.8366,29.1969 227.7976,29.3459 227.8016,29.4639 C227.8046,29.5829 227.8516,29.6719 227.9796,29.6719 Z M215.9126,51.8399 C215.9126,51.1309 216.1456,50.3379 216.3446,49.8189 C216.9366,48.2799 217.4606,46.7179 218.0086,45.1629 C218.5786,43.5449 219.0726,41.8989 219.6686,40.2889 C219.9476,39.5369 220.2436,38.7919 220.5626,38.0569 C220.8956,37.2919 221.0526,36.5519 221.0526,36.2009 C221.0526,35.9949 220.9166,35.3479 220.9166,35.0899 C220.9166,34.6869 221.0626,34.3479 221.4356,33.9279 C221.9086,33.3969 222.5296,33.0439 222.9256,32.4359 C223.3256,31.8219 223.5726,31.0859 223.8566,30.4139 C224.1766,29.6569 224.4886,28.8959 224.8066,28.1379 C226.0126,25.2609 227.5616,22.4209 229.3126,19.8399 C230.7426,17.7329 233.1286,14.6039 235.8576,14.6039 C237.7856,14.6039 238.7896,16.1989 238.7896,17.9279 C238.7896,19.4419 238.2856,20.9449 237.5956,22.2559 C236.8576,23.6579 236.0626,24.9059 235.0876,26.1569 C234.1596,27.3489 233.2376,28.2709 232.2216,29.3869 C231.1406,30.5749 229.8776,31.7629 228.6286,32.7749 C228.0916,33.2089 227.5606,33.5749 227.0276,34.0159 C226.3956,34.5389 225.6616,35.0789 225.1426,35.7229 C224.7156,36.2519 224.4556,37.0879 224.2076,37.7149 C223.8556,38.6019 223.3766,39.6829 223.3556,40.2429 C223.3486,40.4089 223.3996,40.6079 223.5826,40.6079 C223.7246,40.6079 223.9516,40.4319 224.1486,40.1609 C224.5436,39.6219 224.9676,39.0119 225.0786,38.8749 C225.6126,38.2239 226.1396,37.5709 226.7016,36.9429 C228.6566,34.7569 231.2906,32.1659 234.4216,32.1659 C236.2856,32.1659 237.9656,33.5389 237.9656,35.9309 C237.9656,37.0929 237.6216,38.2939 237.2136,39.3219 C236.6406,40.7699 235.8676,42.1279 235.1346,43.4969 C234.8096,44.1029 234.4996,44.7429 234.2666,45.3909 C234.1246,45.7929 233.8906,46.3169 233.8836,46.8069 C233.8736,47.5009 234.1846,47.9269 234.8276,47.9269 C235.8506,47.9269 237.3286,46.7029 237.8406,46.2759 C239.0856,45.2409 240.2426,43.9839 241.1646,42.6549 C241.6196,42.0019 242.1046,41.2479 242.5106,40.5649 C242.8866,39.9339 243.2346,39.1189 243.6116,38.6759 C243.7876,38.4699 244.0686,38.4469 244.3806,38.4469 C244.8076,38.4469 245.2326,38.6709 245.5466,38.9919 C245.9846,39.4379 246.1466,39.8729 246.1606,40.2439 C246.1686,40.4799 246.1186,40.6899 246.0416,40.8589 C245.4456,42.1639 244.3936,43.7049 243.5176,44.9179 C242.6196,46.1609 241.5686,47.3789 240.4386,48.4229 C239.2676,49.5049 237.8726,50.4249 236.3796,50.9889 C235.7456,51.2299 235.0606,51.3789 234.3866,51.3789 C233.5726,51.3789 232.7736,51.1609 232.1016,50.6199 C231.0176,49.7499 230.4276,48.4499 230.4276,47.0779 C230.4276,45.8029 230.9856,43.6099 231.5686,42.4749 C232.2956,41.0589 233.0356,39.6219 233.6906,38.1709 C233.8966,37.7149 234.2636,37.0309 234.2636,36.4519 C234.2636,35.8349 233.9586,35.6439 233.5816,35.6439 C233.2066,35.6439 232.7606,35.8349 232.4806,35.9849 C231.0696,36.7459 230.0626,37.8209 228.9386,38.9479 C226.7206,41.1749 224.7606,43.6029 222.9616,46.1759 C222.0346,47.5019 220.8736,49.1089 220.0236,50.4369 C219.5986,51.0999 219.2276,51.7459 218.7626,52.3829 C218.3646,52.9269 218.0166,53.4079 217.3116,53.4079 C216.2336,53.4079 215.9126,52.6719 215.9126,51.8399 L215.9126,51.8399 Z" id="Fill-17" fill="#F1685C"></path>
            <path d="M254.8712,41.7159 C255.0692,40.9159 255.2032,40.0979 255.2772,39.2779 C255.3012,39.0239 255.3312,38.6049 255.3312,38.1359 C255.3312,36.9379 255.1272,35.4069 254.0582,35.4409 C253.3362,35.4629 252.9322,36.3729 252.7172,36.9399 C252.3712,37.8569 252.1372,39.2419 252.1372,40.0419 C252.1372,40.6399 252.2262,41.2329 252.4222,41.8009 C252.5962,42.3049 253.0272,43.7419 253.7492,43.7419 C254.3342,43.7419 254.6842,42.4779 254.8712,41.7159 L254.8712,41.7159 Z M248.7162,50.1249 C249.5992,49.7039 250.3922,49.0839 251.0872,48.3999 C251.5302,47.9619 252.1462,47.5219 252.1462,47.0489 C252.1462,46.7809 251.7932,46.5049 251.4882,46.2129 C250.6112,45.3719 249.8972,44.5329 249.4392,43.3889 C249.0642,42.4509 248.8772,41.5239 248.8462,39.4529 C248.8422,39.1709 248.8792,38.6289 248.4562,38.6529 C247.9892,38.6809 247.3802,39.4249 247.1272,39.7589 C246.5472,40.5269 245.7932,41.5239 245.3522,42.5019 C244.7172,43.9159 244.0742,45.4329 244.0742,46.9999 C244.0742,47.3879 244.1092,47.7769 244.1822,48.1629 C244.3672,49.1239 244.7932,50.0349 245.7562,50.4129 C246.0942,50.5449 246.4462,50.6019 246.8012,50.6019 C247.4612,50.6019 248.1292,50.4049 248.7162,50.1249 L248.7162,50.1249 Z M246.4502,53.9449 C244.5452,53.9449 242.7502,53.1789 241.7502,51.3199 C241.0592,50.0349 240.6172,48.4679 240.6172,46.9709 C240.6172,45.6959 240.9032,44.4179 241.2522,43.2579 C242.0082,40.7509 243.5292,38.2369 245.4122,36.4119 C246.5572,35.3019 248.1092,34.4069 249.6272,33.9149 C250.3912,33.6669 250.8592,33.4009 251.5042,32.9079 C252.2832,32.3169 253.1992,31.9839 254.2872,31.9839 C257.4142,31.9839 258.5922,35.5619 258.5922,38.3489 C258.5922,39.6699 258.3872,41.0669 258.1292,42.1949 C258.0712,42.4509 257.9002,42.9199 257.9002,43.2319 C257.9002,43.5629 258.0142,43.7619 258.3642,43.7619 C258.8972,43.7619 259.8792,43.2929 260.2332,43.0569 C261.4632,42.2379 262.5922,41.3579 263.3702,40.1869 C263.7052,39.6839 263.8962,39.3339 264.1022,38.9879 C264.2632,38.7219 264.6312,38.4059 265.3932,38.4059 C266.2112,38.4059 267.0162,39.0149 267.0162,39.8429 C267.0162,40.5999 266.4332,41.4249 265.9992,42.0319 C265.2182,43.1249 263.9732,44.4129 262.7142,45.2769 C261.5722,46.0599 260.4802,46.5989 259.1672,47.1249 C258.4122,47.4269 257.6512,47.6119 256.9592,47.7219 C256.2952,47.8259 255.8092,48.0729 255.3962,48.4629 C254.9102,48.9199 254.5322,49.4909 254.0952,49.9929 C253.6272,50.5289 253.1092,51.0279 252.5602,51.4809 C250.7072,53.0109 248.4302,53.9449 246.4492,53.9449 L246.4502,53.9449 Z" id="Fill-19" fill="#F1685C"></path>
            <g id="Group-23" transform="translate(262.000000, 13.293000)">
                <mask id="mask-2" fill="white">
                    <use xlink:href="#path-1"></use>
                </mask>
                <g id="Clip-22"></g>
                <path d="M6.4025,23.9766 C6.6975,23.6236 6.9715,23.2526 7.2595,22.8946 C9.2285,20.4326 11.1645,17.9526 12.7735,15.2316 C13.6635,13.7276 14.6365,11.9396 15.3385,10.3426 C16.0215,8.7846 16.7285,7.3586 16.7615,5.5196 C16.7675,5.1456 16.6455,4.7756 16.2835,4.7756 C16.1195,4.7756 15.9235,4.8556 15.7115,5.0206 C15.1525,5.4586 14.6585,6.0326 14.2165,6.5846 C13.2385,7.8056 12.3945,9.1606 11.5185,10.4556 C9.7065,13.1336 8.3575,16.0226 7.1895,19.0246 C6.6565,20.3966 6.0315,21.6756 5.6285,23.0836 C5.4305,23.7336 5.2815,23.9686 5.2955,24.3306 C5.3025,24.5426 5.3835,24.6926 5.6115,24.6776 C5.8805,24.6586 6.2525,24.1566 6.4025,23.9766 M2.8185,38.5726 C1.0855,36.8726 0.5805,34.1336 0.6215,31.8286 C0.6565,29.8096 1.0625,27.8216 1.5225,25.8516 C2.0455,23.6076 2.6935,21.4236 3.5005,19.2706 C4.3185,17.1796 5.0525,15.0476 6.1135,13.0596 C6.6385,12.0756 7.1265,11.1136 7.6365,10.1226 C8.1835,9.0626 9.0865,7.7526 9.7305,6.7546 C11.1495,4.5536 13.8515,0.7066 16.8445,0.7066 C17.6525,0.7066 18.4705,1.0146 19.2715,1.7536 C20.0145,2.4396 20.3005,3.4886 20.2975,4.5076 C20.2905,6.6186 19.4065,8.9556 18.5705,11.0026 C17.7305,13.0616 16.5545,15.1056 15.4555,17.0406 C13.2825,20.8616 10.4235,24.2176 7.4935,27.4376 C6.7615,28.2266 6.0195,29.0006 5.2265,29.7286 C4.4205,30.4706 3.9455,31.1866 3.9255,32.3806 C3.9255,34.3216 4.2975,36.8246 6.6065,36.8246 C8.6465,36.8246 10.6255,34.8296 11.8775,33.4156 C13.3645,31.7376 14.3755,30.1586 15.5095,28.2286 C16.0005,27.3956 16.2735,26.7016 16.8135,25.7996 C17.0505,25.4036 17.5295,25.1616 17.9725,25.1616 C18.9275,25.1616 19.6915,25.8916 19.6915,26.7336 C19.6915,27.4286 19.2365,28.1406 18.9545,28.7336 C18.4605,29.7716 17.9015,30.7096 17.3015,31.6896 C14.9705,35.4986 11.2465,40.1156 6.7285,40.1156 C5.0315,40.1156 4.0415,39.7716 2.8185,38.5726" id="Fill-21" fill="#F1685C" mask="url(#mask-2)"></path>
            </g>
            <path d="M285.2384,26.7774 C284.6114,26.3214 284.4864,25.5284 284.4864,24.8044 C284.4864,23.3604 285.1724,21.8774 286.5584,21.2614 C286.8314,21.1404 287.1154,21.0844 287.3904,21.0844 C288.5094,21.0844 289.4164,21.8774 289.4164,23.2634 C289.4164,24.5474 288.4084,26.3144 287.2914,26.8644 C286.9854,27.0134 286.6344,27.0994 286.2874,27.0994 C285.9124,27.0994 285.5434,27.0014 285.2384,26.7774 M277.5334,50.4394 C276.8364,49.4524 276.6094,48.2014 276.6094,47.0164 C276.6094,44.4084 277.5154,41.7964 278.4624,39.4014 C278.9464,38.1744 279.5064,36.9894 280.0584,35.7944 C280.5694,34.6894 280.9654,33.3404 281.8944,32.5024 C282.2734,32.1614 282.8014,31.9614 283.3104,31.9614 C284.2134,31.9614 284.8744,32.5934 284.8744,33.5374 C284.8744,34.4644 284.2364,35.4644 283.8504,36.2084 C283.2554,37.3574 282.7114,38.5314 282.1744,39.7094 C281.6064,40.9534 281.0164,42.2164 280.6384,43.5334 C280.3594,44.5034 280.0414,45.7414 280.0084,46.8194 C279.9764,47.8334 280.3164,48.4054 281.1144,48.4054 C281.5804,48.4054 282.1094,48.2034 282.5254,47.9524 C283.7234,47.2284 284.6774,46.2164 285.4774,45.0934 C286.2394,44.0244 286.9244,42.9434 287.6134,41.8264 C287.9454,41.2904 288.3204,40.6934 288.6344,40.1464 C288.9514,39.5954 289.1384,39.0184 289.7164,38.7054 C290.0514,38.5214 290.3454,38.4464 290.6304,38.4464 C291.4004,38.4464 292.1054,38.9984 292.1174,39.8854 C292.1264,40.5814 291.7344,41.2334 291.4134,41.8234 C291.0564,42.4794 290.7244,43.1474 290.3594,43.7984 C289.6024,45.1474 288.7074,46.4904 287.7544,47.7104 C285.9454,50.0244 283.6274,51.9464 280.8604,51.9464 C279.1744,51.9464 278.0454,51.1664 277.5334,50.4394" id="Fill-24" fill="#F1685C"></path>
            <path d="M304.5783,36.3203 C306.0723,34.0513 308.7933,29.6613 310.0313,27.2383 C310.7673,25.7963 311.5683,24.2303 312.2943,22.7813 C312.9673,21.4363 313.8013,19.3933 313.8013,18.5653 C313.8013,18.2863 313.6803,18.0893 313.4643,18.0893 C313.2273,18.0893 312.9203,18.3233 312.7073,18.5393 C312.2293,19.0233 311.8203,19.5703 311.4273,20.1243 C310.6713,21.1863 309.9523,22.2123 309.2993,23.3403 C308.6503,24.4563 308.0143,25.5433 307.4153,26.6853 C306.7653,27.9263 306.0353,29.4793 305.5333,30.7893 C305.0353,32.0863 303.8943,34.8553 303.5103,36.1903 C303.4223,36.4973 303.0333,37.6943 303.4063,37.6943 C303.7353,37.6943 304.2363,36.8413 304.5783,36.3203 M294.2713,48.3253 C295.2343,47.5163 296.0803,46.6013 296.9243,45.6733 C297.3713,45.1803 297.8233,44.6923 298.2603,44.1903 C298.6683,43.7223 299.1343,43.2703 299.3403,42.6713 C299.4313,42.4013 299.4923,42.1193 299.5123,41.8303 C299.5433,41.3533 299.6093,40.8113 299.6833,40.3163 C299.7823,39.6383 299.8923,39.0483 299.9393,38.8323 C300.0863,38.1443 300.2953,37.4813 300.4683,36.8013 C300.5143,36.6243 300.5493,36.4333 300.5493,36.2543 C300.5493,35.6703 300.1433,35.5333 299.5823,35.5333 C299.1063,35.5333 298.5963,35.5863 298.1803,35.7063 C297.4833,35.9083 296.8893,36.2593 296.3403,36.6103 C294.1993,37.9843 292.4513,40.2513 291.2643,42.4743 C290.7953,43.3523 289.3663,46.3943 289.3663,48.3653 C289.3663,49.6773 290.0573,50.1153 290.8533,50.1153 C292.1333,50.1153 293.3383,49.1073 294.2713,48.3253 M286.1193,48.3503 C286.1193,43.3513 289.0153,38.2773 292.7173,35.0043 C294.5353,33.3953 297.0233,32.3033 299.6343,32.3033 C300.0273,32.3033 300.4183,32.3623 300.8123,32.3623 C301.6083,32.3623 301.9163,31.7753 302.1373,31.1403 C302.5533,29.9453 302.9983,28.7703 303.5573,27.6333 C304.1253,26.4763 304.5463,25.2883 305.1033,24.1273 C305.3713,23.5663 305.6093,23.0313 305.8703,22.4663 C306.1223,21.9213 306.4843,21.3593 306.7763,20.8313 C307.3673,19.7663 308.1803,18.7293 308.9243,17.7663 C309.6583,16.8173 310.4893,15.9433 311.4763,15.2543 C312.3533,14.6423 313.3823,14.0923 314.4743,14.0923 C315.7153,14.0923 316.5233,14.8623 316.9183,15.9663 C317.0993,16.4753 317.1773,17.0053 317.1773,17.5433 C317.1773,19.3523 316.3123,21.2623 315.6883,22.8413 C314.7373,25.2463 313.5003,27.3043 312.3013,29.5923 C311.0983,31.8903 309.6153,34.0073 308.1943,36.1753 C306.8043,38.2993 305.2263,40.3413 303.5903,42.2823 C303.1383,42.8173 302.8713,43.9343 302.8713,44.4023 C302.8713,45.9843 303.5413,47.8863 304.8943,47.8913 C306.0193,47.8953 306.6803,47.5333 307.5513,46.8903 C308.5443,46.1573 309.3813,45.2123 310.1953,44.2693 C310.9083,43.4433 311.7263,42.3963 312.3533,41.3393 C312.6553,40.8303 313.0763,40.0433 313.3183,39.5433 C313.5763,39.0083 313.6723,38.7663 314.2373,38.5163 C314.4283,38.4323 314.6233,38.3943 314.8163,38.3943 C315.6283,38.3943 316.4323,38.9723 316.4323,39.9643 C316.4323,40.4543 316.3103,40.8263 316.0683,41.2193 C315.7133,41.7953 315.3163,42.6323 314.9703,43.1593 C314.2053,44.3163 313.6363,45.2623 312.8293,46.2793 C311.3083,48.1943 309.5113,49.8353 307.3923,50.8213 C306.4413,51.2643 305.4193,51.4723 304.4303,51.4723 C303.0213,51.4723 301.4983,50.3563 300.5573,48.6853 C300.3533,48.3243 300.0063,47.8693 299.6503,47.8693 C299.1133,47.8693 298.5663,48.6333 298.1463,49.0453 C297.6973,49.4863 297.2483,49.9283 296.7793,50.3493 C295.1633,51.7983 293.0433,53.4083 290.7613,53.4083 C287.7993,53.4083 286.1193,50.8623 286.1193,48.3503" id="Fill-26" fill="#F1685C"></path>
            <path d="M316.5002,49.5098 C317.8612,48.6388 318.8932,47.3408 319.8772,46.0828 C320.9862,44.6658 322.0872,43.2368 323.0582,41.7198 C323.9492,40.3268 325.4982,38.5068 325.4982,36.8618 C325.4982,35.9908 324.8872,35.7158 324.1292,35.7158 C323.3192,35.7158 322.3442,36.0308 321.7732,36.2698 C320.2102,36.9248 318.8402,37.9528 317.7212,39.2208 C315.6132,41.6098 313.6112,45.2418 313.6112,48.3058 C313.6112,49.2318 314.0272,50.0718 314.8982,50.0718 C315.3872,50.0718 315.9562,49.8598 316.5002,49.5098 M311.8072,52.7188 C310.6022,51.7808 310.2852,50.2468 310.2852,48.7858 C310.2852,44.8328 312.0122,40.7408 314.5742,37.7038 C315.8962,36.1368 317.5162,34.7428 319.3232,33.7658 C321.1542,32.7778 322.4002,32.4298 324.4592,32.4298 C325.4162,32.4298 326.2842,32.7828 327.1692,32.7828 C327.8812,32.7828 328.4472,32.3478 329.0842,32.3478 C329.8852,32.3478 330.5312,33.0088 330.5312,33.8448 C330.5312,34.8598 329.7932,36.0948 329.4482,36.8638 C328.7362,38.4478 327.8712,40.0138 327.4122,41.6978 C327.0662,42.9578 326.5922,44.4698 326.5922,45.8708 C326.5922,47.5308 327.1202,48.0788 327.8052,48.0788 C328.6842,48.0788 329.8172,47.1798 330.4272,46.5718 C331.6932,45.3058 332.6972,43.7638 333.5572,42.2068 C333.9212,41.5478 334.3632,40.6838 334.7892,39.8218 C335.2152,38.9618 335.8922,38.3718 336.8482,38.3718 C337.7062,38.3718 338.1082,39.0398 338.1082,39.8068 C338.1082,40.0988 337.9822,40.6468 337.7802,41.0628 C336.8572,42.9638 335.6342,45.1868 334.3782,46.9908 C333.6052,48.1008 332.6762,49.0698 331.6562,49.8698 C330.4922,50.7848 329.1482,51.5638 327.6862,51.5638 C325.2752,51.5638 324.4242,50.4468 323.4002,48.5438 C323.2382,48.2398 323.1582,48.1348 322.9362,48.1348 C322.4772,48.1348 321.4692,49.4788 320.9432,50.0428 C319.8202,51.2488 317.8902,52.8078 316.3032,53.2858 C315.7252,53.4598 315.1032,53.5618 314.4842,53.5618 C313.5252,53.5618 312.5752,53.3168 311.8072,52.7188" id="Fill-28" fill="#F1685C"></path>
            <path d="M331.0587,71.0977 C332.5857,71.0977 334.1097,70.2467 335.1287,69.3397 C336.1687,68.4147 337.1487,67.3357 337.9677,66.2177 C338.8447,65.0217 339.6257,64.1017 340.3597,62.9507 C341.1497,61.7117 341.9827,60.4017 342.6487,59.0927 C342.8567,58.6857 343.4997,57.5637 343.4997,56.9717 C343.4997,56.7237 343.3717,56.6307 343.1797,56.6307 C342.6977,56.6307 341.8097,57.2167 341.5407,57.3807 C338.9897,58.9347 337.1267,60.4237 334.9057,62.0147 C333.6287,62.9277 332.4237,63.8717 331.4027,65.0807 C330.4587,66.1977 329.1387,67.6857 329.1387,69.2377 C329.1387,70.4327 329.9407,71.0977 331.0607,71.0977 L331.0587,71.0977 Z M329.2617,73.9867 C327.7857,73.5237 326.6137,72.5897 326.0137,71.1357 C325.7947,70.6057 325.7047,69.9067 325.7047,69.3587 C325.7047,68.2737 325.9827,67.3307 326.3967,66.3237 C327.0447,64.7387 328.2557,63.5787 329.4847,62.3547 C331.7957,60.0497 334.3137,58.3717 337.1087,56.6547 C338.4597,55.8237 339.9457,54.9647 341.2917,54.1257 C341.9287,53.7287 342.5807,53.3697 343.2257,52.9887 C343.5587,52.7907 343.9707,52.5807 344.3497,52.3377 C344.8517,52.0167 345.0257,51.8587 345.2337,51.5577 C345.5617,51.0827 345.6627,50.4967 345.8577,49.7707 C345.9087,49.5827 346.1727,48.5467 346.1727,48.0807 C346.1727,47.8517 346.0987,47.6877 345.9197,47.6877 C345.6037,47.6877 345.3227,48.1187 345.1267,48.3557 C344.8517,48.6897 344.5887,49.0357 344.3217,49.3747 C343.8257,50.0077 343.1377,50.6147 342.5457,51.1597 C341.1797,52.4197 339.2397,53.5617 337.2897,53.5617 C336.1597,53.5617 335.0767,53.1767 334.2147,52.2047 C333.2037,51.0667 332.7857,49.2077 332.7857,47.7207 C332.7857,46.2017 333.1917,44.3157 333.7367,42.6587 C334.2817,41.0037 334.9277,39.3517 335.7487,37.8147 C336.4957,36.4167 337.3437,35.0677 338.2287,33.7507 C338.7477,32.9787 339.6667,32.0337 340.5947,32.0337 C341.3957,32.0337 342.1267,32.7237 342.1267,33.7167 C342.1267,34.7997 341.0937,35.8927 340.5467,36.7057 C339.5767,38.1497 338.8637,39.7127 338.1907,41.3137 C337.5237,42.9047 336.9467,44.5447 336.5537,46.2257 C336.4387,46.7217 336.2477,47.5757 336.2477,48.3697 C336.2477,49.6637 336.7967,50.2577 337.5467,50.2577 C338.2197,50.2577 338.9137,49.7447 339.4257,49.3897 C340.0717,48.9397 340.6687,48.4367 341.2467,47.9057 C342.4627,46.7897 343.5567,45.3887 344.5207,44.0597 C345.5227,42.6787 346.3637,41.3077 347.1917,39.8127 C347.5847,39.1017 347.9557,38.3837 348.3037,37.6507 C348.6367,36.9457 348.8867,36.1357 349.3617,35.5097 C349.7537,34.9917 350.3417,34.7207 350.9067,34.7207 C351.5937,34.7207 352.2467,35.1217 352.4717,35.9667 C352.5257,36.1677 352.5477,36.3747 352.5477,36.5827 C352.5477,37.2267 352.3357,37.8917 352.1807,38.4907 C351.9687,39.3007 351.7607,40.1117 351.5547,40.9227 C351.1227,42.6157 350.7857,44.1767 350.3497,45.8687 C350.2647,46.1977 349.9557,47.1907 349.9557,47.7357 C349.9557,48.1677 350.0177,48.3967 350.2617,48.3967 C350.7467,48.3967 351.5447,47.5977 351.7927,47.3747 C353.0047,46.2867 354.1237,45.0657 355.1147,43.7737 C356.1207,42.4607 357.1677,40.9107 357.9227,39.4587 C358.2477,38.8307 358.5647,38.5097 359.2947,38.5097 C360.1407,38.5097 360.9877,39.2277 360.9877,40.0057 C360.9877,40.6977 360.5837,41.3417 360.2217,41.9867 C359.7927,42.7497 359.2607,43.6537 358.7637,44.3747 C357.8587,45.6907 356.8237,46.9107 355.7007,48.0437 C354.5337,49.2227 353.3477,50.4367 352.0357,51.4547 C351.3547,51.9837 350.6137,52.4227 349.8777,52.8687 C349.2717,53.2377 348.4117,53.5887 347.9117,54.1077 C347.5237,54.5097 347.3377,55.4437 347.0877,56.1697 C346.8267,56.9337 346.5097,57.6737 346.2207,58.4267 C345.0347,61.5147 343.2727,64.2477 341.4517,66.9937 C339.5797,69.8167 337.3037,72.3547 334.1117,73.6867 C333.1687,74.0787 332.2137,74.2927 331.2477,74.2927 C330.5897,74.2927 329.9277,74.1947 329.2617,73.9867 L329.2617,73.9867 Z" id="Fill-30" fill="#F1685C"></path>
            <path d="M365.0382,67.9473 C364.7522,67.4953 364.6762,66.9413 364.6762,66.4053 C364.6762,64.4913 365.2302,62.9073 365.6442,61.3803 C366.0882,59.7443 366.8532,57.7583 367.4792,56.1853 C368.7502,52.9973 370.1922,49.8913 371.5692,46.7503 C372.9462,43.6083 374.4472,40.5203 375.5152,37.2583 C376.0222,35.7083 376.4702,34.1933 376.8222,32.5963 C376.9552,31.9943 377.0202,31.1653 377.1132,30.4653 C377.2672,29.3173 377.7482,28.4903 378.8742,28.4903 C379.3972,28.4903 380.0402,28.7533 380.3272,29.2423 C380.6452,29.7823 380.7042,30.4433 380.7042,31.0783 C380.7042,32.1343 380.5732,33.1403 380.3292,34.1533 C380.2792,34.3563 380.0912,35.0093 380.0912,35.3083 C380.0912,35.5453 380.1562,35.7193 380.3602,35.7193 C380.9232,35.7193 381.7822,34.6833 382.3862,34.2183 C383.0512,33.7043 383.7572,33.2413 384.4972,32.8433 C385.5322,32.2863 386.7172,31.8813 387.9022,31.8813 C391.2272,31.8813 392.0412,34.4743 392.0412,37.0183 C392.0412,37.9473 391.9332,38.8683 391.7992,39.6553 C391.5092,41.3573 390.8502,42.9913 390.1502,44.5643 C389.8272,45.2923 389.4822,45.9203 389.0702,46.6033 C388.8892,46.9043 388.6282,47.3673 388.6272,47.6493 C388.6272,47.8113 388.7032,47.9173 388.9072,47.9173 C389.5272,47.9173 390.3522,47.3503 390.7892,47.0413 C391.4922,46.5423 392.2452,46.0013 392.8832,45.4213 C394.0632,44.3463 394.9132,43.0473 395.8452,41.7553 C396.3612,41.0383 396.7772,40.1273 397.2642,39.2843 C397.7412,38.4543 398.4892,38.5293 398.7242,38.5293 C399.4912,38.5293 400.2832,39.1953 400.2832,40.0063 C400.2832,40.5313 400.0292,40.9733 399.7492,41.4823 C398.2032,44.2893 396.2062,46.8473 393.6352,48.7863 C392.4032,49.7153 390.8532,50.7013 389.4092,51.2653 C388.4402,51.6433 386.8872,52.3773 384.3672,52.9533 C383.0032,53.2653 381.3982,53.5633 379.5442,53.5633 C378.3142,53.5633 376.6672,53.3103 376.0252,52.2323 C375.8692,51.9683 375.7862,51.6763 375.7862,51.3913 C375.7862,50.2123 377.0212,49.8263 378.1412,49.8263 C378.9612,49.8263 379.7192,50.0613 380.4972,50.0613 C381.2762,50.0613 381.8942,49.8453 382.4702,49.5563 C383.9152,48.8293 384.8372,47.1783 385.5702,45.9063 C387.1362,43.1933 388.4092,39.5563 388.4302,37.1043 C388.4382,36.0393 388.1832,35.1723 387.0932,35.1723 C386.5242,35.1723 385.8942,35.3983 385.4342,35.6173 C384.0092,36.2993 383.0342,37.4183 381.8512,38.6223 C380.7162,39.7813 379.5662,40.9843 378.5472,42.2513 C377.5542,43.4853 376.7482,44.8253 375.9722,46.2013 C374.3842,49.0143 373.0332,51.8943 371.7462,54.8563 C370.4142,57.9243 369.3272,61.0473 368.5852,64.3183 C368.4042,65.1153 368.1952,65.9133 368.0912,66.7183 C368.0312,67.1763 367.8972,67.7083 367.6772,68.0673 C367.4152,68.4923 367.0302,68.7063 366.4962,68.7063 C365.9282,68.7063 365.3132,68.3833 365.0382,67.9473" id="Fill-32" fill="#F1685C"></path>
            <path d="M408.9162,41.7159 C409.1132,40.9159 409.2472,40.0979 409.3212,39.2779 C409.3452,39.0239 409.3752,38.6049 409.3752,38.1359 C409.3752,36.9379 409.1722,35.4069 408.1022,35.4409 C407.3812,35.4629 406.9762,36.3729 406.7622,36.9399 C406.4152,37.8569 406.1812,39.2419 406.1812,40.0419 C406.1812,40.6399 406.2702,41.2329 406.4662,41.8009 C406.6402,42.3049 407.0712,43.7419 407.7932,43.7419 C408.3782,43.7419 408.7282,42.4779 408.9162,41.7159 L408.9162,41.7159 Z M402.7602,50.1249 C403.6442,49.7039 404.4372,49.0839 405.1312,48.3999 C405.5742,47.9619 406.1912,47.5219 406.1912,47.0489 C406.1912,46.7809 405.8382,46.5049 405.5332,46.2129 C404.6552,45.3719 403.9422,44.5329 403.4832,43.3889 C403.1082,42.4509 402.9222,41.5239 402.8902,39.4529 C402.8862,39.1709 402.9242,38.6289 402.5002,38.6529 C402.0342,38.6809 401.4252,39.4249 401.1722,39.7589 C400.5922,40.5269 399.8372,41.5239 399.3972,42.5019 C398.7622,43.9159 398.1192,45.4329 398.1192,46.9999 C398.1192,47.3879 398.1532,47.7769 398.2272,48.1629 C398.4112,49.1239 398.8382,50.0349 399.8012,50.4129 C400.1392,50.5449 400.4912,50.6019 400.8462,50.6019 C401.5062,50.6019 402.1732,50.4049 402.7602,50.1249 L402.7602,50.1249 Z M400.4952,53.9449 C398.5902,53.9449 396.7952,53.1789 395.7952,51.3199 C395.1032,50.0349 394.6612,48.4679 394.6612,46.9709 C394.6612,45.6959 394.9472,44.4179 395.2972,43.2579 C396.0522,40.7509 397.5732,38.2369 399.4562,36.4119 C400.6012,35.3019 402.1542,34.4069 403.6712,33.9149 C404.4352,33.6669 404.9042,33.4009 405.5492,32.9079 C406.3272,32.3169 407.2432,31.9839 408.3322,31.9839 C411.4592,31.9839 412.6362,35.5619 412.6362,38.3489 C412.6362,39.6699 412.4322,41.0669 412.1742,42.1949 C412.1152,42.4509 411.9442,42.9199 411.9442,43.2319 C411.9442,43.5629 412.0582,43.7619 412.4092,43.7619 C412.9412,43.7619 413.9232,43.2929 414.2782,43.0569 C415.5082,42.2379 416.6372,41.3579 417.4142,40.1869 C417.7492,39.6839 417.9412,39.3339 418.1472,38.9879 C418.3082,38.7219 418.6752,38.4059 419.4372,38.4059 C420.2552,38.4059 421.0602,39.0149 421.0602,39.8429 C421.0602,40.5999 420.4782,41.4249 420.0432,42.0319 C419.2622,43.1249 418.0182,44.4129 416.7592,45.2769 C415.6172,46.0599 414.5252,46.5989 413.2112,47.1249 C412.4562,47.4269 411.6962,47.6119 411.0032,47.7219 C410.3392,47.8259 409.8542,48.0729 409.4402,48.4629 C408.9552,48.9199 408.5772,49.4909 408.1392,49.9929 C407.6712,50.5289 407.1532,51.0279 406.6052,51.4809 C404.7512,53.0109 402.4742,53.9449 400.4942,53.9449 L400.4952,53.9449 Z" id="Fill-34" fill="#F1685C"></path>
            <path d="M421.3898,52.8711 C420.4588,52.8711 419.5278,52.7531 418.6428,52.4901 C417.9328,52.2791 417.1278,51.9301 416.7508,51.2491 C416.6158,51.0041 416.5488,50.7311 416.5488,50.4631 C416.5488,49.6511 417.0488,48.9281 418.1228,48.9281 C418.6178,48.9281 419.1268,49.1001 419.5718,49.2781 C420.0488,49.4701 420.4998,49.6021 420.9558,49.6021 C421.3088,49.6021 421.6628,49.5231 422.0338,49.3301 C423.4588,48.5841 424.2198,46.8601 424.2198,45.3001 C424.2198,43.4781 423.9178,41.8521 423.6708,40.0401 C423.6098,39.5831 423.5588,39.1251 423.4938,38.6691 C423.4498,38.3491 423.4308,37.7981 423.1678,37.5601 C423.0828,37.4841 422.9988,37.4491 422.9128,37.4491 C422.6518,37.4491 422.3858,37.7821 422.1118,38.2671 C421.8888,38.6621 421.6608,39.1571 421.4208,39.6541 C421.0538,40.3511 420.7078,41.3131 420.1848,41.5941 C420.0038,41.6911 419.7318,41.7221 419.5448,41.7221 C418.8238,41.7221 417.7318,41.0031 417.7318,40.2361 C417.7318,39.6051 418.1768,38.8871 418.5058,38.3001 C418.9608,37.4881 419.2188,36.8561 419.7018,36.0181 C420.6038,34.4531 421.2338,33.2361 422.1488,31.6761 C422.7518,30.6451 423.5888,29.0701 424.8688,29.0701 C425.1488,29.0701 425.4488,29.1441 425.7718,29.3161 C426.4308,29.6671 426.9498,30.3221 426.9498,31.2401 C426.9498,32.1041 426.4508,32.8281 426.4508,33.8051 C426.4508,34.6951 426.5678,35.5851 426.7418,36.4501 C427.0968,38.2191 427.3608,40.0581 427.5508,41.8531 C427.6358,42.6541 427.6828,43.4611 427.6828,44.2671 C427.6828,45.1151 427.7068,45.5781 427.5918,46.4191 C427.5768,46.5301 427.5568,46.6791 427.5568,46.8261 C427.5548,47.1221 427.6268,47.4161 427.9538,47.4161 C428.3148,47.4161 429.0888,46.9871 430.7648,45.6441 C432.2338,44.4681 433.3808,42.9881 434.4318,41.4321 C434.7718,40.9291 435.2678,40.0881 435.6638,39.3751 C436.0778,38.6311 436.4938,38.5291 436.8848,38.5291 C437.2318,38.5291 437.6558,38.6211 437.9678,38.8351 C438.4558,39.1691 438.7378,39.7291 438.7378,40.1931 C438.7378,40.8721 437.5788,42.4301 437.0748,43.2321 C436.0738,44.8241 434.9098,46.2461 433.5088,47.5051 C432.0028,48.8591 430.3098,50.1041 428.4848,51.0221 C426.9838,51.7771 425.3938,52.2941 423.7458,52.6291 C422.9798,52.7851 422.1848,52.8711 421.3908,52.8711 L421.3898,52.8711 Z" id="Fill-36" fill="#F1685C"></path>
            <path d="M435.4484,52.5889 C433.9624,51.5299 433.2004,49.8339 433.2004,48.1249 C433.2004,45.5059 434.0144,42.8529 435.0054,40.4239 C435.8994,38.2299 436.8934,36.0769 437.8414,33.9049 C437.9694,33.6109 438.1984,33.2099 438.1984,32.8509 C438.1984,32.2569 437.5084,32.2439 437.0584,32.0839 C436.1874,31.7729 435.4894,31.2599 435.4894,30.4109 C435.4894,28.9109 436.9044,28.9099 437.8994,28.8749 C438.1764,28.8629 438.8034,28.8589 439.0224,28.8479 C439.8564,28.8089 440.1484,28.7419 440.6044,28.0169 C441.2104,27.0529 441.6314,25.9619 442.1324,24.9429 C442.6344,23.9199 443.1464,22.8999 443.6964,21.9009 C444.2154,20.9569 444.8234,19.8079 445.5314,19.0549 C445.8724,18.6929 446.3004,18.4269 447.0754,18.4269 C447.5374,18.4269 448.0584,18.7049 448.3454,19.1709 C448.5054,19.4309 448.5704,19.7029 448.5704,19.9799 C448.5704,20.8059 447.9904,21.6699 447.6114,22.3429 C447.0734,23.2979 446.5484,24.2599 446.0464,25.2349 C445.7824,25.7469 445.5284,26.2649 445.2704,26.7789 C445.0684,27.1859 444.6854,27.7799 444.7114,28.2519 C444.7394,28.7599 445.0744,28.9039 445.7654,28.9379 C446.0824,28.9529 446.7764,28.9439 447.0114,28.9439 C447.1354,28.9439 447.2774,28.9429 447.4294,28.9429 C447.8754,28.9429 448.4124,28.9629 448.8024,29.1209 C449.4904,29.4009 449.6444,30.1229 449.6444,30.5269 C449.6444,31.3509 449.0044,32.0679 448.1864,32.2429 C447.6204,32.3629 447.0384,32.3889 446.5524,32.3889 C445.1254,32.3889 444.5354,32.3139 443.8174,32.3139 C443.1974,32.3139 442.6754,32.4179 442.3024,32.8999 C442.0114,33.2739 441.7894,33.7699 441.6094,34.2019 C441.3854,34.7479 440.9874,35.5909 440.7404,36.1259 C439.7374,38.2919 438.9744,40.1849 438.1664,42.4329 C437.7784,43.5119 437.3574,44.6699 437.1604,45.7989 C437.0344,46.5229 436.9174,47.2519 436.9174,48.0629 C436.9174,49.3889 437.6294,49.8799 438.4454,49.8799 C439.7494,49.8799 441.4284,48.8369 442.1344,48.2769 C443.8124,46.9439 445.2644,45.2739 446.5774,43.5859 C447.2674,42.6949 447.8884,41.7569 448.4724,40.7949 C448.7384,40.3599 449.0754,39.7629 449.3454,39.2709 C449.6414,38.7349 450.1424,38.3799 450.7704,38.3799 C451.6084,38.3799 452.3184,39.2599 452.3184,40.0729 C452.3184,40.3719 452.2554,40.6929 452.1044,41.0169 C451.8324,41.6089 451.2174,42.6569 450.9284,43.1299 C449.7594,45.0449 448.4044,46.8889 446.8864,48.5409 C445.3534,50.2109 443.6514,51.5129 441.6034,52.4929 C440.5114,53.0169 439.2924,53.4079 438.0974,53.4079 C437.1774,53.4079 436.2704,53.1749 435.4484,52.5889" id="Fill-38" fill="#F1685C"></path>
        </g>
    </g>
</svg>